# xmcd
#
# Track frame offsets:
#	150
#	15007
#	25377
#	40344
#	51320
#	60850
#	76459
#	90046
#	108349
#	121741
#	139966
#	149448
#	165045
#	175776
#	192718
#	207094
#	222010
#	245278
#	260220
#	271317
#
# Disc length: 3803 seconds
#
# Revision: 1
# Processed by: cddbd v1.5.2PL0 Copyright (c) Steve Scherf et al.
# Submitted via: EZCDAudioConverter 2.1.7.1
#
DISCID=090ed914
DTITLE=V/A - Eccentric Soul: The Capsoul Label
DYEAR=2005
DGENRE=
TTITLE0=Johnson, Hawkins, Tatum and Durr - You're All I Need To Make It
TTITLE1=Marion Black - Who Knows
TTITLE2=Kool Blues - I'm Gonna Keep On Loving You
TTITLE3=Bill Moss - Sock It To 'Em Soul Brother
TTITLE4=Four Mints - Too Far Gone
TTITLE5=Johnson, Hawkins, Tatum and Durr - You Can't Blame Me
TTITLE6=Bill Moss - Number One
TTITLE7=Four Mints - Row My Boat
TTITLE8=Ronnie Taylor - Without Love
TTITLE9=Kool Blues - I Want To Be Ready
TTITLE10=Johnson, Hawkins, Tatum and Durr - Your Love Keeps Drawing Me Closer
TTITLE11=Elijah and The Ebonites - Hot Grits!!!
TTITLE12=Ronnie Taylor - I Can't Take It
TTITLE13=Kool Blues - Can We Try Love Again
TTITLE14=Four Mints - You're My Desire
TTITLE15=Johnson, Hawkins, Tatum and Durr - A World Without You
TTITLE16=Marion Black - Go On Fool
TTITLE17=Eljah and The Ebonites - Pure Soul
TTITLE18=Bill Moss - Sock It To 'Em Soul Brother [Instrumental]
TTITLE19=Capsoul Group - All I Need To Make It [Instrumental]
EXTD=
EXTT0=
EXTT1=
EXTT2=
EXTT3=
EXTT4=
EXTT5=
EXTT6=
EXTT7=
EXTT8=
EXTT9=
EXTT10=
EXTT11=
EXTT12=
EXTT13=
EXTT14=
EXTT15=
EXTT16=
EXTT17=
EXTT18=
EXTT19=
PLAYORDER=
